<svg width="22" height="21" viewBox="0 0 22 21" fill="none" xmlns="http://www.w3.org/2000/svg">
<path fill-rule="evenodd" clip-rule="evenodd" d="M19.0772 1.0067C17.9614 -0.103711 16.1523 -0.103715 15.0365 1.0067L1.55286 14.4252C1.15399 14.8221 0.882111 15.3277 0.77149 15.8781L0.212365 18.6602C-0.0541997 19.9865 1.12091 21.156 2.45373 20.8907L5.24934 20.3343C5.80247 20.2243 6.31048 19.9537 6.70934 19.5567L20.193 6.13824C21.3088 5.02784 21.3088 3.22752 20.193 2.1171L19.0772 1.0067ZM16.3834 2.34707C16.7554 1.97694 17.3584 1.97694 17.7304 2.34707L18.8461 3.45749C19.2181 3.82762 19.2181 4.42772 18.8461 4.79787L16.3017 7.32998L13.839 4.87919L16.3834 2.34707ZM12.4921 6.21957L2.89975 15.7656C2.76679 15.8979 2.67617 16.0664 2.6393 16.2499L2.08017 19.0319L4.87579 18.4755C5.06016 18.4388 5.2295 18.3487 5.36245 18.2164L14.9548 8.67036L12.4921 6.21957Z" fill="black"/>
</svg>
