<svg width="20" height="16" viewBox="0 0 20 16" fill="none" xmlns="http://www.w3.org/2000/svg">
<path d="M0 11.7401V6.74008C0 5.71341 0.366667 4.83341 1.1 4.10008C1.83333 3.36674 2.72 3.00008 3.76 3.00008H8.76V1.76008C8.76 1.48008 8.83333 1.24008 8.98 1.04008C9.12667 0.840077 9.31333 0.69341 9.54 0.600077C9.76667 0.506744 10 0.486744 10.24 0.540077C10.48 0.593411 10.6933 0.700077 10.88 0.860077L13.38 3.36008C13.6333 3.62674 13.76 3.92674 13.76 4.26008C13.76 4.59341 13.6333 4.88674 13.38 5.14008L10.88 7.64008C10.6933 7.82674 10.4733 7.94008 10.22 7.98008C9.96667 8.02008 9.73333 7.99341 9.52 7.90008C9.30667 7.80675 9.12667 7.66008 8.98 7.46008C8.83333 7.26008 8.76 7.02674 8.76 6.76008V5.50008H3.76C3.41333 5.50008 3.11333 5.62674 2.86 5.88008C2.60667 6.13341 2.48667 6.42674 2.5 6.76008V11.7601C2.5 12.1067 2.62 12.4001 2.86 12.6401C3.1 12.8801 3.4 13.0001 3.76 13.0001H16.26C16.5933 13.0001 16.8867 12.8801 17.14 12.6401C17.3933 12.4001 17.5133 12.1067 17.5 11.7601V6.76008C17.5 6.41341 17.38 6.12008 17.14 5.88008C16.9 5.64008 16.6067 5.51341 16.26 5.50008H16.02C16.3133 4.67341 16.3133 3.84008 16.02 3.00008H16.26C17.2867 3.00008 18.1667 3.36674 18.9 4.10008C19.6333 4.83341 20 5.71341 20 6.74008V11.7401C20 12.7801 19.6333 13.6667 18.9 14.4001C18.1667 15.1334 17.2867 15.5001 16.26 15.5001H3.76C2.72 15.5001 1.83333 15.1334 1.1 14.4001C0.366667 13.6667 0 12.7801 0 11.7401Z" fill="black"/>
</svg>
