<svg width="20" height="21" viewBox="0 0 20 21" fill="none" xmlns="http://www.w3.org/2000/svg">
<path d="M1.64618 4.38971H18.2358M14.0884 4.38971L13.8078 3.55193C13.5359 2.74005 13.3998 2.33412 13.1477 2.034C12.9249 1.76897 12.639 1.56383 12.3159 1.43739C11.95 1.29419 11.5201 1.29419 10.6602 1.29419H9.22183C8.36187 1.29419 7.93199 1.29419 7.56609 1.43739C7.24302 1.56383 6.95702 1.76897 6.73431 2.034C6.48211 2.33412 6.34614 2.74005 6.0742 3.55193L5.79359 4.38971M16.1621 4.38971V14.9145C16.1621 16.6482 16.1621 17.5149 15.8231 18.1771C15.5249 18.7596 15.049 19.2331 14.4637 19.5299C13.7983 19.8673 12.9273 19.8673 11.1852 19.8673H8.69677C6.95469 19.8673 6.08365 19.8673 5.41828 19.5299C4.83298 19.2331 4.35713 18.7596 4.05891 18.1771C3.71988 17.5149 3.71988 16.6482 3.71988 14.9145V4.38971M12.0147 8.51707V15.7399M7.86729 8.51707V15.7399" stroke="black" stroke-width="2" stroke-linecap="round" stroke-linejoin="round"/>
</svg>
